<?xml version="1.0" encoding="utf-8"?>
<!-- Generator: Adobe Illustrator 16.0.0, SVG Export Plug-In . SVG Version: 6.00 Build 0)  -->
<!DOCTYPE svg PUBLIC "-//W3C//DTD SVG 1.1//EN" "http://www.w3.org/Graphics/SVG/1.1/DTD/svg11.dtd">
<svg version="1.1" id="Layer_1" xmlns="http://www.w3.org/2000/svg" xmlns:xlink="http://www.w3.org/1999/xlink" x="0px" y="0px"
	 width="450px" height="315px" viewBox="0 0 1400 980" enable-background="new 0 0 1400 980" xml:space="preserve">
<g>
	<g>
		<path d="M324.075,376.304c-28.854,0-56.027-11.199-76.515-31.538c-1.319-1.31-1.478-3.387-0.375-4.882
			c1.102-1.494,3.133-1.956,4.774-1.083c11.563,6.157,24.628,9.413,37.783,9.413c14.399,0,28.515-3.84,40.844-11.109
			c14.014-10.309,13.482-21.94,12.984-25.265c-1.561-10.41,4.511-12.636,6.796-13.473l0.31-0.115
			c0.773-0.295,1.624-0.326,2.414-0.084c0.164,0.049,16.955,4.92,22.092-5.361c0.926-1.851,3.177-2.599,5.025-1.675
			c1.851,0.925,2.6,3.175,1.675,5.024c-6.955,13.911-24.662,10.742-29.661,9.528c-1.151,0.524-1.792,1.386-1.243,5.045
			c0.656,4.371,1.434,19.593-15.911,32.376c-0.144,0.117-0.297,0.227-0.46,0.323c-13.531,8.031-29.044,12.276-44.865,12.276
			c-6.411,0-12.799-0.707-19.034-2.087c15.869,9.899,34.221,15.196,53.367,15.196c55.762,0,101.126-45.364,101.126-101.126
			c0-55.761-45.364-101.126-101.126-101.126c-19.146,0-37.498,5.297-53.367,15.196c6.235-1.38,12.624-2.087,19.034-2.087
			c15.896,0,31.777,4.467,45.928,12.918c12.614,7.535,18.486,21.104,21.19,31.158c0.675,2.515,0.921,4.919,1.161,7.246
			c0.493,4.8,0.9,7.62,3.531,9.752c1.534,1.243,3.972,4.121,3.065,9.416c-1.319,7.699-9.62,17.935-15.245,22.376
			c0.424,0.766,0.934,1.387,1.424,1.512c0.653,0.169,1.855-0.213,2.917-0.551c1.858-0.59,6.796-2.16,8.91,2.68
			c0.832,1.896-0.034,4.104-1.929,4.933c-1.407,0.615-2.987,0.298-4.045-0.682c-0.231,0.07-0.468,0.146-0.666,0.208
			c-1.812,0.578-4.296,1.368-7.03,0.673c-5.931-1.505-7.62-8.678-7.793-9.491c-0.39-1.836,0.637-3.679,2.407-4.309
			c2.48-1.102,12.819-12.193,13.709-18.88c0.205-1.541-0.249-1.908-0.441-2.065c-5.174-4.195-5.755-9.832-6.264-14.805
			c-0.217-2.125-0.424-4.133-0.944-6.067c-2.343-8.719-7.335-20.423-17.795-26.671c-12.99-7.758-27.542-11.859-42.087-11.859
			c-13.155,0-26.22,3.255-37.783,9.412c-1.644,0.872-3.672,0.411-4.774-1.083c-1.102-1.495-0.944-3.572,0.375-4.882
			c20.488-20.337,47.661-31.538,76.515-31.538c59.893,0,108.617,48.726,108.617,108.617
			C432.692,327.58,383.968,376.304,324.075,376.304z"/>
		<path d="M352.01,305.499c-1.417,0-2.772-0.807-3.404-2.179l-4.343-9.42c-0.114-0.25-0.202-0.513-0.261-0.783
			c-0.412-1.926-0.017-5.938,4.082-8.755c0.722-0.627,1.443-4.058,1.412-6.784c-0.022-2.068,1.634-3.764,3.704-3.788
			c0.015,0,0.029,0,0.044,0c2.048,0,3.718,1.648,3.743,3.703c0.027,2.29-0.231,9.996-4.66,13.042
			c-0.59,0.406-0.819,0.763-0.907,0.996l3.989,8.652c0.866,1.879,0.044,4.104-1.833,4.97
			C353.065,305.387,352.534,305.499,352.01,305.499z"/>
		<path d="M370.766,304.723c-13.067,0-25.011-10.734-25.535-11.209c-1.529-1.393-1.641-3.761-0.249-5.292
			c1.395-1.529,3.757-1.641,5.289-0.251c0.146,0.133,11.192,9.964,21.624,9.221c2.068-0.15,3.857,1.403,4.004,3.466
			c0.149,2.063-1.402,3.856-3.465,4.005C371.875,304.704,371.319,304.723,370.766,304.723z"/>
		<path d="M359.959,242.846c-0.595,0-1.183-0.285-1.546-0.814c-0.585-0.854-0.366-2.019,0.488-2.603
			c0.482-0.332,11.995-8.102,23.011-6.232c10.705,1.82,14.014,4.999,14.355,5.354c0.717,0.748,0.69,1.933-0.056,2.648
			c-0.744,0.717-1.931,0.694-2.646-0.055l0,0c-0.002,0-2.858-2.653-12.28-4.255c-9.549-1.622-20.163,5.556-20.268,5.629
			C360.693,242.74,360.325,242.846,359.959,242.846z"/>
		<path d="M377.64,259.647c-1.915,0-3.912-0.223-5.952-0.761c-1.002-0.263-1.597-1.289-1.334-2.289c0.261-1,1.283-1.6,2.287-1.333
			c6.896,1.815,13.443-0.708,17-2.564c-9.107-3.809-18.839-1.628-18.946-1.604c-1.007,0.231-2.014-0.393-2.248-1.398
			c-0.234-1.007,0.388-2.013,1.395-2.249c0.544-0.128,13.497-3.063,24.63,3.486c0.542,0.319,0.885,0.888,0.919,1.516
			c0.034,0.626-0.249,1.229-0.753,1.603C394.27,254.326,386.964,259.647,377.64,259.647z"/>
		<path d="M375.418,259.643c-0.229,0-0.466-0.042-0.692-0.133c-5.138-2.044-3.128-10.29-2.882-11.224
			c0.261-1.001,1.288-1.598,2.287-1.333c1,0.263,1.597,1.286,1.334,2.285l0,0c-0.537,2.065-0.9,6.178,0.646,6.793
			c0.961,0.381,1.432,1.47,1.049,2.432C376.867,259.196,376.162,259.643,375.418,259.643z"/>
		<path d="M378.535,259.465c-0.536,0-1.065-0.227-1.436-0.669c-0.666-0.792-0.561-1.973,0.231-2.639
			c1.195-1.002,1.846-2.076,1.937-3.194c0.136-1.71-1.039-3.155-1.051-3.17c-0.675-0.783-0.59-1.965,0.193-2.641
			c0.783-0.677,1.968-0.589,2.641,0.193c0.229,0.263,2.212,2.663,1.951,5.918c-0.173,2.154-1.271,4.094-3.263,5.764
			C379.386,259.321,378.959,259.465,378.535,259.465z"/>
		<path d="M378.532,282.981c-0.487,0-0.978-0.19-1.343-0.569c-0.719-0.743-0.703-1.928,0.042-2.648
			c11.956-11.588,49.997-13.855,51.611-13.945c1.02-0.054,1.917,0.731,1.975,1.764s-0.731,1.917-1.765,1.975
			c-0.381,0.021-38.256,2.274-49.215,12.896C379.474,282.805,379.003,282.981,378.532,282.981z"/>
	</g>
	<g>
		<path d="M695.198,335.758c-42.655,0-77.359-34.704-77.359-77.359s34.704-77.359,77.359-77.359
			c42.654,0,77.358,34.704,77.358,77.359S737.853,335.758,695.198,335.758z M695.198,188.531c-38.526,0-69.868,31.342-69.868,69.868
			c0,38.525,31.342,69.868,69.868,69.868c38.525,0,69.867-31.343,69.867-69.868C765.065,219.873,733.724,188.531,695.198,188.531z"
			/>
		<path d="M686.302,234.359c-0.757,0-1.472-0.463-1.753-1.214c-1.848-4.922-4.788-10.1-16.451-9.229
			c-12.849,0.961-25.503,7.698-25.629,7.767c-0.91,0.49-2.046,0.15-2.537-0.762c-0.49-0.911-0.149-2.047,0.762-2.536
			c0.545-0.294,13.489-7.185,27.125-8.203c13.589-1.017,17.86,5.317,20.236,11.646c0.363,0.968-0.126,2.048-1.095,2.412
			C686.743,234.321,686.521,234.359,686.302,234.359z"/>
		<path d="M663.5,255.157c-2.265,0-4.284-0.282-6-0.839c-9.812-3.187-14.221-9.237-14.403-9.493
			c-0.315-0.441-0.423-0.996-0.298-1.523c0.126-0.528,0.473-0.974,0.954-1.225c0.483-0.252,11.952-6.189,22.207-6.189
			c2.938,0,5.533,0.494,7.714,1.471c11.088,4.959,12.012,10.242,12.082,10.828c0.096,0.82-0.356,1.607-1.115,1.936
			C684.167,250.329,672.95,255.157,663.5,255.157z M647.698,244.348c1.865,1.798,5.447,4.618,10.958,6.408
			c1.342,0.435,2.971,0.656,4.844,0.656c6.592,0,14.467-2.708,17.901-4.023c-0.975-1.449-3.396-3.988-9.257-6.61
			c-1.697-0.76-3.778-1.144-6.185-1.144C659.14,239.634,651.405,242.685,647.698,244.348z"/>
		<path d="M664.533,253.639c-4.894,0-8.876-3.982-8.876-8.875c0-4.894,3.982-8.876,8.876-8.876s8.875,3.982,8.875,8.876
			C673.408,249.657,669.427,253.639,664.533,253.639z M664.533,239.633c-2.829,0-5.13,2.302-5.13,5.131c0,2.83,2.302,5.13,5.13,5.13
			s5.13-2.301,5.13-5.13C669.663,241.935,667.361,239.633,664.533,239.633z"/>
		<path d="M640.595,240.85c-0.648,0-1.279-0.336-1.625-0.938c-0.516-0.895-0.209-2.04,0.688-2.556
			c1.101-0.635,27.159-15.379,43.9-1.017c0.785,0.674,0.875,1.856,0.203,2.641c-0.673,0.785-1.854,0.878-2.641,0.203
			c-14.727-12.635-39.345,1.276-39.592,1.417C641.232,240.77,640.912,240.85,640.595,240.85z"/>
		<path d="M664.168,262.58c-10.332,0-16.25-6.117-16.333-6.207c-0.708-0.753-0.672-1.938,0.082-2.646
			c0.752-0.708,1.933-0.673,2.643,0.078c0.441,0.462,10.676,10.814,28.465,0.577c0.894-0.513,2.041-0.208,2.557,0.69
			c0.516,0.896,0.207,2.041-0.689,2.557C674.492,261.311,668.872,262.58,664.168,262.58z"/>
		<path d="M655.663,291.844c-0.737,0-1.435-0.437-1.733-1.159c-10.401-25.239-31.344-25.629-32.231-25.633
			c-1.033-0.005-1.868-0.845-1.865-1.877s0.837-1.868,1.87-1.868c0.242,0,24.301,0.32,35.689,27.952
			c0.394,0.956-0.061,2.051-1.018,2.445C656.142,291.799,655.9,291.844,655.663,291.844z"/>
		<path d="M685.374,283.425c-0.343,0-0.649-0.056-0.911-0.137c-1.261-0.385-2.199-1.568-2.576-3.244
			c-0.422-1.88-0.15-4.564,1.444-6.012c0.764-0.694,1.947-0.639,2.646,0.125c0.695,0.766,0.639,1.951-0.127,2.646
			c-0.435,0.396-0.491,1.876-0.258,2.647c0.029-0.026,0.061-0.054,0.094-0.085c4.303-4.066,10.261-0.38,10.513-0.222
			c0.875,0.552,1.136,1.708,0.584,2.583c-0.551,0.872-1.707,1.133-2.577,0.588l0,0c-0.038-0.023-3.763-2.29-5.947-0.227
			C687.166,283.119,686.171,283.425,685.374,283.425z"/>
		<path d="M689.017,303.693c-14.088,0-23.811-6.753-24.275-7.083c-0.844-0.598-1.044-1.766-0.446-2.61
			c0.6-0.845,1.768-1.043,2.609-0.447c0.16,0.111,12.085,8.323,28.02,5.959c1.016-0.154,1.974,0.555,2.126,1.578
			s-0.555,1.975-1.578,2.127C693.238,303.548,691.08,303.693,689.017,303.693z"/>
		<path d="M673.796,300.322c-0.691,0-1.356-0.384-1.682-1.047c-0.457-0.928-0.074-2.05,0.854-2.507
			c2.101-1.031,12.81-6.123,17.224-5.01c4.327,1.09,6.095,2.65,6.282,2.825c0.757,0.705,0.8,1.89,0.095,2.646
			c-0.703,0.758-1.891,0.799-2.646,0.095l0,0c-0.002,0-1.314-1.096-4.645-1.935c-2.289-0.575-9.948,2.425-14.656,4.739
			C674.356,300.259,674.074,300.322,673.796,300.322z"/>
		<path d="M692.358,312.229c-6.171,0-14.883-2.376-17.146-11.693c-0.244-1.004,0.373-2.018,1.377-2.262
			c1.008-0.239,2.019,0.373,2.263,1.378c2.557,10.521,15.524,8.737,16.073,8.656c1.03-0.159,1.974,0.557,2.126,1.58
			c0.15,1.023-0.557,1.975-1.58,2.125C694.56,312.148,693.502,312.229,692.358,312.229z"/>
		<path d="M704.094,234.359c-0.219,0-0.441-0.038-0.658-0.12c-0.968-0.363-1.458-1.443-1.095-2.412
			c2.376-6.33,6.626-12.671,20.237-11.646c13.636,1.018,26.579,7.909,27.124,8.203c0.911,0.489,1.251,1.624,0.762,2.535
			s-1.624,1.252-2.535,0.763c-0.127-0.068-12.806-6.808-25.629-7.767c-11.665-0.869-14.604,4.305-16.452,9.229
			C705.565,233.896,704.852,234.359,704.094,234.359z"/>
		<path d="M726.898,255.157c-0.002,0-0.002,0-0.003,0c-9.45,0-20.667-4.828-21.14-5.034c-0.758-0.329-1.211-1.116-1.114-1.936
			c0.069-0.585,0.993-5.868,12.081-10.828c2.182-0.977,4.775-1.471,7.714-1.471c10.255,0,21.724,5.937,22.207,6.189
			c0.48,0.251,0.827,0.697,0.953,1.225c0.126,0.527,0.018,1.082-0.298,1.523c-0.183,0.256-4.591,6.306-14.403,9.493
			C731.18,254.875,729.162,255.157,726.898,255.157z M709.002,247.392c3.438,1.315,11.307,4.02,17.895,4.02h0.002
			c1.87,0,3.499-0.221,4.841-0.656c5.51-1.79,9.092-4.608,10.959-6.408c-3.708-1.663-11.442-4.713-18.262-4.713
			c-2.406,0-4.487,0.384-6.185,1.144C712.411,243.391,709.988,245.92,709.002,247.392z"/>
		<path d="M725.863,253.639c-4.895,0-8.876-3.982-8.876-8.875c0-4.894,3.981-8.876,8.876-8.876c4.894,0,8.876,3.982,8.876,8.876
			C734.739,249.657,730.757,253.639,725.863,253.639z M725.863,239.633c-2.829,0-5.131,2.302-5.131,5.131
			c0,2.83,2.302,5.13,5.131,5.13c2.828,0,5.13-2.301,5.13-5.13C730.993,241.935,728.691,239.633,725.863,239.633z"/>
		<path d="M749.801,240.85c-0.316,0-0.638-0.08-0.932-0.25c-0.247-0.141-24.861-14.051-39.592-1.417
			c-0.785,0.675-1.967,0.584-2.642-0.203c-0.673-0.784-0.582-1.967,0.203-2.641c16.744-14.364,42.8,0.381,43.899,1.017
			c0.896,0.516,1.204,1.661,0.688,2.556C751.08,240.513,750.449,240.85,749.801,240.85z"/>
		<path d="M726.228,262.58c-4.704,0-10.323-1.268-16.724-4.952c-0.896-0.516-1.205-1.661-0.689-2.557
			c0.517-0.899,1.662-1.204,2.557-0.69c17.802,10.247,28.04-0.13,28.467-0.578c0.712-0.745,1.898-0.778,2.645-0.068
			c0.748,0.708,0.786,1.887,0.079,2.638C742.478,256.463,736.558,262.58,726.228,262.58z"/>
		<path d="M734.732,291.844c-0.237,0-0.479-0.045-0.712-0.141c-0.957-0.394-1.411-1.489-1.018-2.445
			c11.388-27.632,35.447-27.952,35.688-27.952c1.034,0,1.873,0.838,1.873,1.873c0,1.033-0.838,1.872-1.87,1.873
			c-0.919,0.005-21.837,0.414-32.229,25.633C736.168,291.408,735.469,291.844,734.732,291.844z"/>
		<path d="M705.021,283.425c-0.797,0-1.792-0.306-2.883-1.338c-2.175-2.057-5.904,0.199-5.941,0.223
			c-0.875,0.55-2.031,0.292-2.583-0.584c-0.552-0.875-0.29-2.031,0.584-2.583c0.254-0.158,6.207-3.844,10.513,0.222
			c0.033,0.032,0.064,0.06,0.094,0.085c0.233-0.771,0.177-2.251-0.258-2.647c-0.766-0.695-0.822-1.88-0.127-2.646
			c0.698-0.764,1.882-0.819,2.646-0.125c1.594,1.448,1.865,4.132,1.443,6.012c-0.377,1.676-1.315,2.859-2.576,3.244
			C705.671,283.367,705.364,283.425,705.021,283.425z"/>
		<path d="M701.379,303.693c-2.063,0-4.219-0.145-6.455-0.476c-1.023-0.152-1.73-1.104-1.578-2.127
			c0.151-1.023,1.107-1.731,2.126-1.578c15.957,2.373,27.9-5.875,28.02-5.959c0.844-0.595,2.013-0.394,2.608,0.451
			c0.597,0.844,0.396,2.011-0.446,2.607C725.19,296.939,715.465,303.693,701.379,303.693z"/>
		<path d="M716.6,300.322c-0.278,0-0.56-0.063-0.825-0.193c-4.71-2.314-12.368-5.314-14.654-4.739
			c-3.352,0.844-4.66,1.947-4.672,1.958c-0.773,0.666-1.949,0.602-2.631-0.158c-0.68-0.759-0.641-1.913,0.106-2.607
			c0.187-0.175,1.955-1.735,6.283-2.825c4.419-1.121,15.122,3.979,17.222,5.01c0.928,0.457,1.311,1.579,0.854,2.507
			C717.955,299.938,717.291,300.322,716.6,300.322z"/>
		<path d="M698.038,312.229c-1.145,0-2.199-0.082-3.113-0.216c-1.022-0.15-1.73-1.102-1.58-2.125
			c0.151-1.023,1.105-1.731,2.123-1.58c0.56,0.081,13.532,1.814,16.076-8.656c0.245-1.005,1.257-1.617,2.263-1.378
			c1.004,0.244,1.621,1.257,1.377,2.262C712.92,309.852,704.209,312.229,698.038,312.229z"/>
		<g>
			<g>
				<path d="M717.894,192.108c-1.616,0-3.105-1.052-3.59-2.68l-19.105-64.258l-19.105,64.252c-0.589,1.983-2.667,3.114-4.659,2.522
					c-1.982-0.589-3.111-2.675-2.522-4.657l22.695-76.326c0.473-1.589,1.934-2.679,3.591-2.679c1.657,0,3.117,1.09,3.59,2.679
					l22.697,76.332c0.589,1.982-0.54,4.069-2.522,4.658C718.606,192.057,718.247,192.108,717.894,192.108z"/>
				<path d="M695.198,408.516c-1.657,0-3.118-1.09-3.591-2.678l-22.697-76.334c-0.589-1.982,0.541-4.067,2.523-4.657
					c1.982-0.59,4.068,0.54,4.658,2.522l19.106,64.258l19.102-64.245c0.591-1.982,2.674-3.111,4.659-2.523
					c1.982,0.59,3.111,2.675,2.522,4.657l-22.693,76.322C698.315,407.425,696.855,408.516,695.198,408.516z"/>
			</g>
			<path d="M695.198,408.516c-2.069,0-3.746-1.678-3.746-3.746v-72.757c0-2.068,1.676-3.746,3.746-3.746
				c2.069,0,3.745,1.678,3.745,3.746v72.757C698.943,406.838,697.267,408.516,695.198,408.516z"/>
			<path d="M695.198,188.539c-2.069,0-3.746-1.677-3.746-3.746v-72.765c0-2.068,1.676-3.746,3.746-3.746
				c2.069,0,3.745,1.678,3.745,3.746v72.765C698.943,186.862,697.267,188.539,695.198,188.539z"/>
		</g>
		<g>
			<g>
				<path d="M765.233,284.844c-1.615,0-3.104-1.052-3.589-2.679c-0.589-1.982,0.54-4.068,2.522-4.657l64.26-19.109l-64.253-19.106
					c-1.982-0.589-3.111-2.675-2.522-4.658c0.592-1.982,2.672-3.112,4.659-2.522l76.325,22.696c1.588,0.473,2.677,1.933,2.677,3.59
					c0,1.657-1.089,3.118-2.677,3.589l-76.333,22.699C765.947,284.794,765.588,284.844,765.233,284.844z"/>
				<path d="M625.151,284.84c-0.354,0-0.712-0.051-1.069-0.157l-76.321-22.694c-1.588-0.472-2.677-1.932-2.677-3.589
					c0-1.658,1.089-3.117,2.677-3.59l76.333-22.698c1.982-0.591,4.068,0.539,4.659,2.522c0.589,1.982-0.541,4.069-2.523,4.658
					l-64.259,19.108l64.249,19.104c1.982,0.59,3.111,2.675,2.522,4.657C628.256,283.787,626.765,284.84,625.151,284.84z"/>
			</g>
			<path d="M621.583,262.145h-72.755c-2.069,0-3.746-1.678-3.746-3.746c0-2.069,1.676-3.745,3.746-3.745h72.755
				c2.069,0,3.746,1.676,3.746,3.745C625.329,260.467,623.652,262.145,621.583,262.145z"/>
			<path d="M841.567,262.145h-72.764c-2.069,0-3.745-1.678-3.745-3.746c0-2.069,1.676-3.745,3.745-3.745h72.764
				c2.069,0,3.745,1.676,3.745,3.745C845.313,260.467,843.637,262.145,841.567,262.145z"/>
		</g>
		<g>
			<g>
				<path d="M760.767,228.671c-0.603,0-1.213-0.146-1.78-0.453c-1.818-0.985-2.494-3.258-1.509-5.077l31.927-58.949l-58.942,31.924
					c-1.82,0.988-4.092,0.31-5.077-1.509c-0.984-1.819-0.31-4.092,1.51-5.077l70.02-37.924c1.454-0.79,3.259-0.528,4.432,0.645
					c1.172,1.172,1.435,2.974,0.645,4.432l-37.927,70.025C763.386,227.96,762.097,228.671,760.767,228.671z"/>
				<path d="M591.7,365.645c-0.971,0-1.929-0.377-2.649-1.098c-1.172-1.171-1.435-2.974-0.645-4.432l37.927-70.026
					c0.985-1.819,3.259-2.496,5.077-1.509c1.819,0.985,2.495,3.257,1.509,5.077l-31.927,58.95l58.938-31.922
					c1.82-0.986,4.093-0.309,5.077,1.509c0.985,1.819,0.31,4.092-1.51,5.077l-70.014,37.922
					C592.921,365.497,592.308,365.645,591.7,365.645z"/>
			</g>
			<path d="M591.698,365.645c-0.958,0-1.917-0.366-2.648-1.098c-1.463-1.461-1.463-3.834,0-5.296l51.447-51.448
				c1.463-1.463,3.833-1.463,5.296,0c1.463,1.463,1.463,3.834,0,5.296l-51.447,51.448
				C593.615,365.279,592.657,365.645,591.698,365.645z"/>
			<path d="M747.244,210.098c-0.958,0-1.916-0.366-2.647-1.097c-1.464-1.463-1.464-3.834,0-5.296l51.452-51.453
				c1.464-1.463,3.834-1.463,5.297,0c1.463,1.462,1.463,3.833,0,5.296L749.893,209C749.161,209.732,748.203,210.098,747.244,210.098
				z"/>
		</g>
		<g>
			<g>
				<path d="M798.696,365.645c-0.608,0-1.221-0.147-1.782-0.453l-70.025-37.924c-1.819-0.985-2.495-3.259-1.51-5.078
					c0.985-1.819,3.259-2.493,5.077-1.511l58.95,31.929l-31.924-58.945c-0.985-1.819-0.31-4.091,1.509-5.077
					c1.82-0.985,4.093-0.309,5.077,1.509l37.922,70.021c0.79,1.458,0.527,3.26-0.645,4.432
					C800.625,365.268,799.667,365.645,798.696,365.645z"/>
				<path d="M629.623,228.66c-1.332,0-2.619-0.711-3.297-1.963l-37.92-70.014c-0.79-1.458-0.526-3.26,0.645-4.432
					c1.173-1.173,2.973-1.435,4.432-0.645l70.024,37.926c1.819,0.985,2.495,3.257,1.509,5.077c-0.985,1.819-3.256,2.495-5.077,1.509
					l-58.949-31.927l31.921,58.939c0.985,1.819,0.31,4.093-1.509,5.078C630.836,228.514,630.225,228.66,629.623,228.66z"/>
			</g>
			<path d="M643.146,210.09c-0.958,0-1.917-0.366-2.648-1.097l-51.446-51.446c-1.463-1.463-1.463-3.834,0-5.296
				c1.463-1.463,3.833-1.463,5.296,0l51.446,51.446c1.463,1.462,1.463,3.833,0,5.296C645.062,209.725,644.104,210.09,643.146,210.09
				z"/>
			<path d="M798.697,365.645c-0.958,0-1.916-0.366-2.648-1.098l-51.451-51.454c-1.463-1.463-1.463-3.834,0-5.297
				c1.463-1.462,3.833-1.462,5.296,0.001l51.452,51.455c1.463,1.462,1.463,3.834,0,5.297
				C800.614,365.279,799.656,365.645,798.697,365.645z"/>
		</g>
	</g>
	<g>
		<path d="M1166.576,499.24c-0.47,0-0.948-0.089-1.41-0.276c-1.916-0.78-2.837-2.967-2.057-4.882l8.799-21.614
			c0.78-1.917,2.967-2.836,4.881-2.057c1.916,0.78,2.837,2.965,2.057,4.882l-8.799,21.614
			C1169.455,498.36,1168.055,499.24,1166.576,499.24z"/>
		<path d="M1189.938,479.978c-0.07,0-0.141-0.001-0.213-0.006c-0.795-0.044-19.585-1.155-30.121-6.7
			c-6.516-3.432-9.332,1.128-9.631,1.659c-1.015,1.803-3.3,2.443-5.102,1.429c-1.803-1.015-2.442-3.298-1.429-5.101
			c1.808-3.209,8.856-10.295,19.651-4.616c9.108,4.794,26.872,5.84,27.051,5.85c2.064,0.116,3.645,1.884,3.529,3.949
			C1193.563,478.437,1191.91,479.978,1189.938,479.978z"/>
		<path d="M1147.987,484.311c-1.845,0-3.75-0.417-5.496-1.423c-2.013-1.159-5.377-4.091-5.281-10.707
			c0.065-4.511,1.833-8.229,5.112-10.75c7.488-5.762,20.095-3.434,25.164-2.167c9.683,2.424,16.271-1.517,16.545-1.687
			c1.757-1.074,4.06-0.538,5.147,1.208c1.087,1.747,0.574,4.036-1.165,5.137c-0.379,0.24-9.437,5.835-22.344,2.609
			c-3.899-0.976-7.628-1.41-10.816-1.308c0.363,0.207,0.698,0.478,0.985,0.813c2.636,3.062,3.801,6.531,3.277,9.771
			c-0.452,2.809-2.132,5.216-4.729,6.774C1152.676,483.609,1150.383,484.31,1147.987,484.311z M1150.385,465.8
			c-1.42,0.36-2.605,0.884-3.496,1.569c-1.46,1.123-2.156,2.687-2.188,4.921c-0.021,1.459,0.228,3.357,1.529,4.107
			c1.246,0.717,3.167,0.442,4.304-0.239c0.689-0.413,1.09-0.933,1.188-1.542c0.162-1.007-0.405-2.352-1.56-3.692
			C1148.864,469.416,1148.979,467.17,1150.385,465.8z"/>
		<path d="M1189.935,479.978c-5.862,0-10.631-5.491-10.631-12.242c0-6.75,4.769-12.243,10.631-12.243
			c2.068,0,3.745,1.678,3.745,3.746c0,2.069-1.677,3.745-3.745,3.745c-1.485,0-3.14,1.952-3.14,4.752
			c0,2.801,1.654,4.751,3.14,4.751c2.068,0,3.745,1.678,3.745,3.746C1193.68,478.302,1192.003,479.978,1189.935,479.978z"/>
		<path d="M1179.445,466.926c-1.92,0-3.557-1.47-3.726-3.419c-0.087-0.985-2.049-24.239,2.852-35.444
			c0.425-0.969,1.237-1.714,2.241-2.051c1.001-0.336,2.1-0.233,3.022,0.284c0.805,0.44,3.411,1.541,5.609,1.253
			c2.065-0.267,3.933,1.173,4.204,3.224c0.27,2.051-1.174,3.933-3.224,4.203c-2.216,0.293-4.355-0.027-6.106-0.502
			c-2.161,8.751-1.607,22.984-1.137,28.382c0.18,2.061-1.346,3.877-3.406,4.057C1179.665,466.922,1179.555,466.926,1179.445,466.926
			z"/>
		<path d="M1182.005,433.311c-1.458,0-2.845-0.857-3.449-2.285c-0.279-0.656-1.604-4.084-0.307-7.063
			c0.666-1.531,1.917-2.696,3.521-3.278c3.569-1.301,8.033-0.911,8.528-0.862c2.06,0.203,3.564,2.035,3.362,4.093
			c-0.201,2.057-2.061,3.558-4.084,3.364c-1.006-0.094-2.855-0.099-4.313,0.192c0.057,0.252,0.133,0.499,0.188,0.629
			c0.809,1.905-0.08,4.103-1.984,4.911C1182.988,433.214,1182.492,433.311,1182.005,433.311z"/>
		<path d="M1183.621,427.763c-1.846,0-3.454-1.366-3.707-3.247c-0.427-3.173-1.789-13.766-1.356-16.792
			c0.672-4.694,4.503-6.459,4.937-6.646l2.946,6.887c0,0,0.048-0.016,0.126-0.058c-0.152,0.083-0.516,0.334-0.594,0.877
			c-0.185,1.462,0.564,8.787,1.366,14.732c0.275,2.051-1.163,3.936-3.213,4.212C1183.957,427.751,1183.788,427.763,1183.621,427.763
			z"/>
		<path d="M1189.935,410.29c-5.994,0-10.871-4.877-10.871-10.871s4.877-10.871,10.871-10.871c2.068,0,3.745,1.678,3.745,3.746
			c0,2.069-1.677,3.745-3.745,3.745c-1.863,0-3.38,1.517-3.38,3.38s1.517,3.379,3.38,3.379c2.068,0,3.745,1.677,3.745,3.746
			C1193.68,408.612,1192.003,410.29,1189.935,410.29z"/>
		<path d="M1189.93,685.743c-1.86,0-3.475-1.386-3.712-3.28l-23.356-186.503c-0.257-2.053,1.199-3.925,3.251-4.183
			c2.067-0.256,3.926,1.2,4.182,3.252l23.356,186.502c0.258,2.054-1.198,3.924-3.25,4.183
			C1190.241,685.733,1190.084,685.743,1189.93,685.743z"/>
		<path d="M1184.897,643.637c-0.164,0-0.331-0.022-0.497-0.066c-0.997-0.275-1.584-1.305-1.31-2.302l4.971-18.088V502.876
			l-21.944-5.566c-1.002-0.255-1.608-1.273-1.354-2.275c0.256-1.004,1.271-1.608,2.276-1.355l23.356,5.925
			c0.83,0.211,1.411,0.959,1.411,1.815v122.013c0,0.168-0.021,0.334-0.066,0.497l-5.038,18.332
			C1186.475,643.09,1185.72,643.637,1184.897,643.637z"/>
		<path d="M1213.292,499.24c-1.478,0-2.878-0.88-3.47-2.333l-8.798-21.614c-0.78-1.917,0.139-4.102,2.056-4.882
			c1.914-0.779,4.102,0.14,4.882,2.057l8.798,21.614c0.78,1.915-0.14,4.102-2.056,4.882
			C1214.24,499.151,1213.763,499.24,1213.292,499.24z"/>
		<path d="M1189.931,479.978c-1.972,0-3.624-1.541-3.735-3.534c-0.116-2.065,1.464-3.833,3.528-3.951
			c0.179-0.01,17.962-1.065,27.053-5.85c10.788-5.682,17.845,1.406,19.651,4.616c1.012,1.803,0.373,4.086-1.429,5.101
			c-1.805,1.014-4.087,0.374-5.102-1.429c-0.702-1.169-3.536-4.871-9.632-1.659c-10.536,5.545-29.326,6.656-30.121,6.7
			C1190.072,479.977,1190.001,479.978,1189.931,479.978z"/>
		<path d="M1231.88,484.311c-2.395,0-4.687-0.702-6.396-1.729c-2.6-1.558-4.279-3.965-4.73-6.774
			c-0.524-3.24,0.641-6.709,3.277-9.771c0.287-0.335,0.621-0.606,0.984-0.813c-3.182-0.102-6.915,0.333-10.816,1.308
			c-12.914,3.229-21.964-2.369-22.345-2.609c-1.747-1.107-2.268-3.42-1.162-5.168c1.103-1.742,3.4-2.264,5.149-1.174
			c0.33,0.201,6.906,4.096,16.541,1.684c5.071-1.267,17.673-3.594,25.164,2.167c3.279,2.521,5.045,6.239,5.111,10.75
			c0.098,6.616-3.268,9.548-5.279,10.707C1235.633,483.894,1233.726,484.311,1231.88,484.311z M1229.485,465.8
			c1.404,1.371,1.52,3.616,0.222,5.125c-1.153,1.34-1.721,2.685-1.561,3.692c0.101,0.609,0.5,1.129,1.19,1.543
			c1.134,0.679,3.056,0.955,4.304,0.238c1.302-0.75,1.549-2.647,1.526-4.106c-0.032-2.235-0.727-3.799-2.188-4.922
			C1232.09,466.684,1230.902,466.161,1229.485,465.8z"/>
		<path d="M1189.935,479.978c-2.069,0-3.746-1.676-3.746-3.745c0-2.068,1.677-3.746,3.746-3.746c1.484,0,3.14-1.951,3.14-4.751
			c0-2.8-1.655-4.752-3.14-4.752c-2.069,0-3.746-1.676-3.746-3.745c0-2.068,1.677-3.746,3.746-3.746
			c5.861,0,10.631,5.493,10.631,12.243C1200.565,474.487,1195.796,479.978,1189.935,479.978z"/>
		<path d="M1200.425,466.926c-0.11,0-0.22-0.004-0.332-0.014c-2.061-0.18-3.585-1.996-3.405-4.057
			c0.47-5.4,1.018-19.637-1.14-28.382c-1.751,0.477-3.894,0.793-6.104,0.502c-2.051-0.27-3.493-2.152-3.224-4.203
			c0.271-2.051,2.148-3.491,4.204-3.224c2.19,0.284,4.804-0.813,5.624-1.262c0.924-0.504,2.022-0.602,3.018-0.263
			c0.994,0.339,1.809,1.075,2.229,2.037c4.903,11.206,2.94,34.46,2.855,35.445C1203.979,465.456,1202.344,466.926,1200.425,466.926z
			"/>
		<path d="M1197.863,433.311c-0.489,0-0.985-0.096-1.462-0.299c-1.905-0.808-2.794-3.008-1.985-4.912
			c0.072-0.178,0.141-0.407,0.19-0.629c-1.532-0.305-3.459-0.276-4.308-0.193c-2.056,0.195-3.892-1.305-4.092-3.363
			c-0.202-2.058,1.304-3.89,3.363-4.093c0.494-0.049,4.957-0.439,8.53,0.862c1.603,0.583,2.853,1.747,3.519,3.278
			c1.297,2.979-0.029,6.407-0.307,7.064C1200.707,432.453,1199.32,433.309,1197.863,433.311z"/>
		<path d="M1196.247,427.763c-0.167,0-0.335-0.012-0.505-0.034c-2.049-0.277-3.487-2.162-3.212-4.212
			c0.801-5.945,1.551-13.27,1.364-14.735c-0.076-0.534-0.462-0.813-0.466-0.816c-1.902-0.813-2.785-3.014-1.972-4.916
			c0.814-1.902,3.016-2.785,4.917-1.972c0.435,0.187,4.265,1.952,4.938,6.646c0.431,3.026-0.93,13.619-1.356,16.792
			C1199.703,426.397,1198.094,427.763,1196.247,427.763z"/>
		<path d="M1189.935,410.29c-2.069,0-3.746-1.678-3.746-3.746c0-2.069,1.677-3.746,3.746-3.746c1.862,0,3.38-1.517,3.38-3.379
			s-1.518-3.38-3.38-3.38c-2.069,0-3.746-1.676-3.746-3.745c0-2.068,1.677-3.746,3.746-3.746c5.993,0,10.87,4.877,10.87,10.871
			S1195.928,410.29,1189.935,410.29z"/>
		<path d="M1189.939,685.743c-0.156,0-0.313-0.01-0.471-0.029c-2.052-0.259-3.508-2.129-3.251-4.183l23.358-186.502
			c0.256-2.053,2.128-3.508,4.182-3.252c2.051,0.258,3.506,2.13,3.25,4.183l-23.357,186.503
			C1193.414,684.357,1191.8,685.743,1189.939,685.743z"/>
		<path d="M1194.971,643.637c-0.821,0-1.576-0.544-1.805-1.376l-5.037-18.332c-0.045-0.163-0.067-0.329-0.067-0.497V501.419
			c0-0.856,0.582-1.604,1.412-1.815l23.357-5.925c1.005-0.253,2.021,0.352,2.275,1.355c0.253,1.002-0.352,2.021-1.354,2.275
			l-21.946,5.566v120.305l4.971,18.088c0.274,0.997-0.312,2.026-1.309,2.302C1195.303,643.614,1195.136,643.637,1194.971,643.637z"
			/>
	</g>
	<g>
		<path d="M493.457,478.852c-37.323,0-76.99-9.48-76.99-27.051c0-17.57,39.667-27.049,76.99-27.049
			c37.322,0,76.989,9.479,76.989,27.049C570.446,469.371,530.779,478.852,493.457,478.852z M493.457,432.242
			c-43.059,0-69.499,11.391-69.499,19.559s26.439,19.56,69.499,19.56c43.059,0,69.499-11.393,69.499-19.56
			S536.516,432.242,493.457,432.242z"/>
		<path d="M493.453,557.091c-1.725,0-3.277-1.2-3.656-2.954c-0.438-2.021,0.845-4.013,2.864-4.453l0,0
			c0.196-0.042,19.795-4.445,38.151-18.718c24.315-18.905,35.135-45.428,32.158-78.832c-0.183-2.061,1.337-3.879,3.398-4.063
			c2.041-0.177,3.879,1.337,4.063,3.398c4.02,45.113-16.952,71.446-35.253,85.59c-19.69,15.221-40.07,19.76-40.929,19.946
			C493.982,557.063,493.715,557.091,493.453,557.091z"/>
		<path d="M493.452,574.566c-1.88,0-3.502-1.411-3.718-3.325c-0.231-2.054,1.245-3.907,3.298-4.141
			c1.122-0.132,26.187-3.356,26.159-26.203c-0.002-2.069,1.673-3.748,3.741-3.751c0.001,0,0.003,0,0.005,0
			c2.066,0,3.743,1.674,3.745,3.741c0.029,23.691-21.446,32.375-32.806,33.654C493.733,574.56,493.592,574.566,493.452,574.566z"/>
		<path d="M493.952,557.091c-0.262,0-0.529-0.028-0.796-0.086c-0.858-0.187-21.239-4.726-40.929-19.946
			c-18.302-14.145-39.273-40.478-35.253-85.59c0.183-2.061,2.01-3.575,4.063-3.398c2.061,0.184,3.581,2.003,3.398,4.063
			c-2.986,33.508,7.905,60.086,32.373,79c18.365,14.194,37.739,18.508,37.933,18.549c2.021,0.439,3.305,2.433,2.868,4.454
			C497.229,555.891,495.677,557.091,493.952,557.091z"/>
		<path d="M493.953,574.566c-0.14,0-0.282-0.007-0.424-0.024c-11.361-1.279-32.836-9.963-32.807-33.654
			c0.002-2.067,1.679-3.741,3.746-3.741c0.001,0,0.002,0,0.005,0c2.068,0.003,3.743,1.682,3.741,3.751
			c-0.028,22.984,25.085,26.081,26.154,26.203c2.056,0.231,3.535,2.085,3.303,4.141
			C497.455,573.153,495.833,574.566,493.953,574.566z"/>
		<path d="M493.702,613.581c-4.158,0-14.199-0.56-17.619-5.738c-0.405-0.613-0.621-1.33-0.621-2.064v-39.939
			c0-2.069,1.677-3.746,3.746-3.746s3.746,1.677,3.746,3.746v38.357c1.459,0.832,5.148,1.895,10.749,1.895
			c5.597,0,9.285-1.061,10.75-1.897v-38.354c0-2.069,1.676-3.746,3.746-3.746c2.069,0,3.745,1.677,3.745,3.746v39.939
			c0,0.734-0.216,1.451-0.621,2.064C507.902,613.021,497.861,613.581,493.702,613.581z"/>
		<path d="M493.948,620.656c-11.085,0-22.599-4.695-24.639-10.049c-1.048-2.75-0.973-5.314,0.223-7.617
			c2.473-4.759,8.94-6.448,9.215-6.518c1.003-0.255,2.021,0.352,2.276,1.354c0.253,1.001-0.351,2.019-1.351,2.274l0,0
			c-0.051,0.014-5.133,1.358-6.82,4.625c-0.688,1.33-0.702,2.818-0.043,4.548c1.173,3.075,10.565,7.637,21.14,7.637
			c10.665,0,19.49-4.597,20.648-7.636c0.66-1.734,0.644-3.225-0.049-4.558c-1.679-3.233-6.76-4.602-6.812-4.614
			c-1.002-0.255-1.609-1.274-1.354-2.276c0.256-1.003,1.271-1.609,2.276-1.354c0.274,0.069,6.742,1.759,9.214,6.518
			c1.196,2.303,1.272,4.867,0.223,7.617C516.022,616.054,504.964,620.656,493.948,620.656z"/>
		<path d="M493.707,636.887c-0.004,0-0.002,0-0.005,0c-24.044,0-48.349-8.768-54.178-19.545c-2.404-4.444-2.208-9.439,0.55-14.067
			c5.722-9.603,21.083-15.806,39.134-15.806c2.069,0,3.746,1.678,3.746,3.745s-1.677,3.745-3.746,3.745
			c-17.587,0-29.095,6.103-32.699,12.148c-1.393,2.337-1.526,4.582-0.396,6.669c3.529,6.522,23.339,15.619,47.59,15.619
			c0.001,0,0.003,0,0.005,0c24.751,0,44.928-9.182,47.414-15.256c0.872-2.129,0.767-4.007-0.331-5.91
			c-3.432-5.955-15.808-10.93-33.103-13.305c-2.049-0.282-3.482-2.171-3.2-4.221c0.28-2.05,2.157-3.485,4.219-3.201
			c20.449,2.809,33.788,8.683,38.574,16.985c2.252,3.905,2.519,8.224,0.773,12.49C543.637,627.77,518.748,636.886,493.707,636.887z"
			/>
		<path d="M423.93,461.018c-0.567,0-1.126-0.256-1.495-0.744c-0.624-0.825-0.461-2,0.364-2.623
			c12.228-9.243,40.925-15.214,73.112-15.214c29.379,0,56.141,4.998,69.841,13.044c0.891,0.523,1.19,1.67,0.666,2.563
			c-0.524,0.894-1.669,1.189-2.563,0.666c-13.158-7.728-39.193-12.528-67.944-12.528c-30.941,0-59.414,5.81-70.854,14.457
			C424.72,460.895,424.324,461.018,423.93,461.018z"/>
		<path d="M495.912,493.625c-35.799,0-67.262-7.548-76.514-18.355c-0.673-0.785-0.58-1.968,0.205-2.641
			c0.789-0.673,1.969-0.578,2.641,0.205c8.454,9.877,39.437,17.046,73.668,17.046c29.462,0,56.591-5.2,69.115-13.247
			c0.869-0.56,2.029-0.308,2.587,0.563c0.56,0.871,0.307,2.029-0.563,2.587C553.764,488.321,526.506,493.625,495.912,493.625z"/>
		<path d="M494.291,525.669c-7.229,0-13.109-5.974-13.109-13.317c0-7.343,5.88-13.317,13.109-13.317
			c7.229,0,13.109,5.975,13.109,13.317C507.4,519.695,501.52,525.669,494.291,525.669z M494.291,502.779
			c-5.164,0-9.364,4.295-9.364,9.572c0,5.278,4.2,9.572,9.364,9.572c5.163,0,9.363-4.294,9.363-9.572
			C503.654,507.074,499.454,502.779,494.291,502.779z"/>
	</g>
	<g>
		<path d="M195.044,697.638c-0.866,0-1.729-0.179-2.565-0.537c-7.506-3.226-11.602-22.936-12.175-58.585
			c-0.646-40.197,0.491-84.477,0.683-91.479c-2.95-5.769-7.97-13.927-10.79-15.52c-4.322-2.438-9.064-2.505-9.111-2.505
			c-1.669,0-3.137-1.105-3.599-2.708c-0.462-1.604,0.192-3.32,1.605-4.209c0.441-0.278,10.944-6.736,20.949-0.423
			c0.059,0.036,0.118,0.074,0.175,0.11c-0.538-19.98-2.686-65.449-5.686-70.914c-6.071-7.2,0.83-20.317,1.641-21.797
			c0.2-0.366,0.46-0.695,0.77-0.974c1.6-1.449,15.961-14.081,27.479-11.102c7.844,2.033,11.619,7.307,13.171,10.27
			c1.935,3.694,2.465,7.602,1.417,10.452c-1.229,3.703-4.72,40.074-5.069,69.654c-0.178,15.058-1.699,59.979-3.982,101.814
			c-4.44,81.348-7.926,84.55-9.799,86.269C198.592,696.894,196.815,697.638,195.044,697.638z M179.43,530.306
			c4.138,5.284,7.76,12.369,8.682,14.226c0.273,0.55,0.406,1.16,0.389,1.774c-0.015,0.481-1.406,48.688-0.706,92.088
			c0.583,36.267,5.02,48.842,7.2,51.409c5.188-13.007,10.994-143.718,11.452-182.52c0.347-29.264,3.798-67.438,5.531-72.15
			c0.165-0.45,0.136-2.179-1.022-4.392c-0.977-1.864-3.369-5.187-8.414-6.494c-6.188-1.602-16.345,5.731-20.093,8.977
			c-2.16,4.218-4.027,10.709-2.169,12.843c1.337,1.536,3.83,4.397,6.001,42.46c0.944,16.555,1.433,33.048,1.538,38.878
			c3.321,2.873,4.967,4.963,5.074,5.099c1.271,1.632,0.978,3.984-0.655,5.257c-1.63,1.267-3.977,0.979-5.25-0.646
			C186.9,537.004,184.447,533.972,179.43,530.306z"/>
		<path d="M185.803,523.865c-0.013,0-0.025,0-0.039-0.002c-1.034-0.02-1.854-0.873-1.835-1.906c0.006-0.288,0.166-7.161,2.69-17.493
			c2.631-10.772,6.899-43.555,5.398-50.103c-6.28,2.728-14.718-3.584-15.709-4.353c-0.817-0.634-0.965-1.808-0.333-2.626
			c0.632-0.817,1.807-0.968,2.626-0.337c2.27,1.753,8.932,5.818,12.458,3.599c1-0.634,2.132-0.628,3.025,0.015
			c1.154,0.832,3.303,2.377,0.728,25.484c-1.337,11.999-3.405,24.504-4.555,29.209c-2.417,9.896-2.581,16.611-2.583,16.678
			C187.652,523.052,186.818,523.865,185.803,523.865z"/>
		<path d="M194.033,680.275c-0.796,0-1.869-0.336-2.826-1.772c-2.854-4.271-2.008-9.207-0.835-16.037
			c1.113-6.489,2.639-15.377,1.469-27.535c-1.203-12.514-3.499-26.476-5.345-37.697c-1.822-11.083-3.262-19.837-3.141-23.759
			c0.031-1.035,0.927-1.85,1.929-1.815c1.034,0.032,1.846,0.897,1.814,1.93c-0.11,3.559,1.375,12.586,3.094,23.037
			c1.854,11.275,4.161,25.309,5.377,37.946c1.218,12.658-0.357,21.829-1.506,28.527c-1.023,5.957-1.712,9.971,0.033,12.963
			c2.952-4.696,6.386-30.624,5.749-40.909c-0.343-5.521-2.892-22.953-5.358-39.813c-2.692-18.4-5.234-35.78-5.478-41.085
			c-0.371-8.1,5.766-46.639,9.827-72.142c1.147-7.203,2.137-13.423,2.674-17.059c2.213-14.981-4.504-23.831-4.572-23.918
			c-0.634-0.817-0.486-1.995,0.331-2.628c0.817-0.634,1.992-0.485,2.627,0.329c0.318,0.41,7.763,10.217,5.321,26.765
			c-0.541,3.657-1.533,9.887-2.681,17.102c-3.792,23.812-10.138,63.665-9.786,71.38c0.237,5.119,2.884,23.215,5.443,40.714
			c2.592,17.716,5.04,34.448,5.391,40.124c0.427,6.887-2.073,42.989-8.637,45.204C194.735,680.198,194.416,680.275,194.033,680.275z
			"/>
		<path d="M203.828,595.337c-0.871,0-1.649-0.61-1.833-1.495c-0.068-0.335-6.818-33.702-3.523-60.744
			c0.557-4.567,1.306-10.178,2.171-16.674c3.66-27.436,10.472-78.506,5.56-84.021c-3.593-4.036-13.125-1.641-17.552,1.88
			c-0.862,0.687-2.773,2.414-1.903,3.643c0.417,0.588,0.703,0.871,0.862,1.001c0.327-0.272,0.851-0.919,1.251-1.413
			c1.556-1.921,3.906-4.826,8.176-5.155c1.027-0.071,1.933,0.692,2.012,1.724c0.078,1.031-0.694,1.931-1.724,2.012
			c-2.661,0.204-4.132,2.019-5.552,3.774c-1.171,1.449-2.4,2.948-4.261,2.885c-1.771-0.056-3.027-1.546-3.818-2.663
			c-1.887-2.662-0.906-5.928,2.626-8.739c5.72-4.55,17.397-7.374,22.681-1.441c5.6,6.287,1.209,43.124-4.644,87.008
			c-0.864,6.486-1.612,12.085-2.165,16.633c-3.221,26.441,3.406,59.207,3.475,59.536c0.207,1.012-0.445,2.002-1.458,2.21
			C204.08,595.324,203.953,595.337,203.828,595.337z"/>
	</g>
	<g>
		<path d="M322.721,796.355c-13.14,0-23.83-10.374-23.83-23.125c0-12.75,10.69-23.123,23.83-23.123
			c12.725,0,23.181,9.653,23.804,21.978c0.105,2.065-1.486,3.825-3.551,3.93c-2.063,0.113-3.826-1.485-3.93-3.552
			c-0.42-8.335-7.591-14.865-16.323-14.865c-9.009,0-16.339,7.014-16.339,15.633c0,8.621,7.33,15.635,16.339,15.635
			c5.228,0,10.016-2.309,13.136-6.334c1.267-1.637,3.62-1.932,5.255-0.666c1.635,1.267,1.932,3.62,0.666,5.255
			C337.228,792.989,330.282,796.355,322.721,796.355z"/>
		<path d="M319.674,785.53c-8.86,0-16.576-5.55-18.766-13.498c-0.274-0.997,0.311-2.027,1.308-2.303
			c1-0.273,2.028,0.311,2.303,1.308c1.742,6.329,7.975,10.748,15.155,10.748c8.615,0,15.623-6.374,15.623-14.212
			c0-3.913-1.715-7.56-4.829-10.271c-0.781-0.678-0.863-1.86-0.185-2.641c0.679-0.781,1.861-0.863,2.642-0.186
			c3.887,3.383,6.117,8.157,6.117,13.097C339.042,777.477,330.354,785.53,319.674,785.53z"/>
		<path d="M390.972,796.355c-13.14,0-23.83-10.374-23.83-23.125c0-12.75,10.69-23.123,23.83-23.123
			c12.725,0,23.181,9.653,23.804,21.978c0.105,2.065-1.486,3.825-3.552,3.93c-2.03,0.113-3.826-1.485-3.929-3.552
			c-0.421-8.335-7.591-14.865-16.323-14.865c-9.009,0-16.339,7.014-16.339,15.633c0,8.621,7.33,15.635,16.339,15.635
			c5.228,0,10.016-2.309,13.137-6.334c1.268-1.637,3.621-1.932,5.255-0.666c1.635,1.268,1.933,3.621,0.666,5.255
			C405.479,792.989,398.532,796.355,390.972,796.355z"/>
		<path d="M387.926,785.53c-8.861,0-16.578-5.55-18.767-13.498c-0.274-0.997,0.311-2.027,1.308-2.303
			c1-0.273,2.028,0.311,2.303,1.308c1.742,6.329,7.975,10.748,15.156,10.748c8.614,0,15.622-6.374,15.622-14.212
			c0-3.914-1.716-7.562-4.83-10.271c-0.78-0.678-0.863-1.86-0.184-2.641c0.678-0.78,1.859-0.865,2.642-0.186
			c3.887,3.38,6.117,8.154,6.117,13.097C407.293,777.477,398.605,785.53,387.926,785.53z"/>
		<path d="M367.987,825.301c-7.661,0-12.632-3.57-13.295-9.55c-0.701-6.306,4.682-17.261,9.953-23.149
			c2.967-3.316,5.858-4.999,8.593-4.999c2.102,0,3.992,0.985,5.321,2.772c4.93,6.626,10.233,22.907,8.283,28.2
			c-1.706,4.626-9.318,6.089-15.474,6.498C370.87,825.145,369.601,825.301,367.987,825.301z M372.825,795.228
			c-3.513,1.57-11.254,14.608-10.688,19.695c0.213,1.917,2.181,2.887,5.851,2.887c1.354,0,2.364-0.158,2.374-0.16
			c0.116-0.019,0.246-0.034,0.363-0.042c3.665-0.236,7.746-1.111,9.094-1.911C379.958,812.571,377.029,801.194,372.825,795.228z"/>
		<path d="M374.536,822.818c-0.349,0-0.701-0.096-1.016-0.3c-0.438-0.283-10.749-7.101-12.396-20.903
			c-0.124-1.026,0.611-1.959,1.637-2.081c1.025-0.122,1.959,0.609,2.081,1.638c1.442,12.076,10.62,18.143,10.712,18.202
			c0.87,0.563,1.117,1.721,0.556,2.59C375.751,822.518,375.149,822.818,374.536,822.818z"/>
		<path d="M355.913,866.117c-22.382,0.003-43.764-8.771-44.695-9.156c-1.413-0.587-2.326-1.975-2.309-3.504
			c0.151-12.867-0.793-32.981-3.366-37.405c-1.04-1.788-0.433-4.082,1.356-5.12c1.791-1.039,4.081-0.434,5.121,1.355
			c4.036,6.94,4.41,29.775,4.396,38.644c6.28,2.298,24.263,8.196,41.841,7.662c17.113-0.532,30.246-7.184,34.902-9.883
			l-2.605-27.409c-0.118-1.246,0.394-2.469,1.364-3.259c1.112-0.905,11.075-8.892,18.292-10.524
			c3.663-0.829,9.956-8.376,7.556-31.008c-1.501-14.156-6.528-21.082-10.566-26.646c-2.453-3.379-4.572-6.299-5.428-10.013
			c-0.463-2.016,0.794-4.026,2.811-4.489c2.003-0.466,4.024,0.792,4.49,2.809c0.513,2.228,2.135,4.464,4.189,7.294
			c4.322,5.954,10.24,14.108,11.953,30.254c2.755,25.98-5.09,37.235-13.352,39.104c-3.955,0.895-10.222,5.202-13.659,7.81
			l2.632,27.688c0.129,1.354-0.488,2.673-1.612,3.443c-0.689,0.473-17.162,11.582-40.736,12.313
			C357.629,866.105,356.769,866.117,355.913,866.117z"/>
		<path d="M337.173,829.684c-1.166,0-2.314-0.542-3.046-1.559c-0.114-0.158-5.213-7.055-12.309-8.796
			c-1.475-0.362-3.928-0.563-6.768-0.796c-11.557-0.95-33.069-2.716-34.402-23.094c-1.011-15.4,4.42-27.259,9.212-37.722
			c2.284-4.985,4.44-9.694,5.757-14.412c0.556-1.994,2.625-3.157,4.615-2.601c1.992,0.556,3.156,2.621,2.601,4.613
			c-1.475,5.287-3.751,10.258-6.162,15.52c-4.639,10.128-9.436,20.599-8.549,34.112c0.844,12.864,13.509,14.964,27.542,16.117
			c3.158,0.259,5.885,0.483,7.939,0.986c9.874,2.423,16.341,11.327,16.611,11.705c1.205,1.681,0.817,4.021-0.865,5.226
			C338.688,829.456,337.927,829.684,337.173,829.684z"/>
		<path d="M288.112,810.232c-5.371,0-10.406-2.85-14.632-8.298c-10.942-14.113-15.813-46.602-3.948-81.388
			c6.29-18.439,20.897-32.234,41.131-38.842c26.013-8.497,58.032-4.026,79.678,11.129c36.866,25.806,30.499,64.638,30.208,66.278
			c-0.358,2.037-2.305,3.392-4.338,3.038c-2.036-0.358-3.396-2.299-3.04-4.335c0.259-1.507,5.708-35.862-27.127-58.847
			c-19.812-13.867-49.173-17.944-73.055-10.144c-12.693,4.146-29.305,13.433-36.367,34.14c-11.011,32.277-6.937,61.851,2.777,74.38
			c2.034,2.622,5.292,5.692,9.318,5.374c2.05-0.163,3.863,1.384,4.022,3.445c0.158,2.063-1.384,3.863-3.447,4.023
			C288.9,810.217,288.505,810.232,288.112,810.232z"/>
		<path d="M325.022,859.515c-1.034,0-1.873-0.837-1.873-1.873v-17.215c0-1.034,0.839-1.873,1.873-1.873
			c1.034,0,1.873,0.839,1.873,1.873v17.215C326.895,858.678,326.057,859.515,325.022,859.515z"/>
		<path d="M337.169,862.813c-1.034,0-1.873-0.839-1.873-1.873v-17.215c0-1.034,0.839-1.873,1.873-1.873
			c1.034,0,1.873,0.839,1.873,1.873v17.215C339.042,861.975,338.204,862.813,337.169,862.813z"/>
		<path d="M349.316,864.245c-1.034,0-1.873-0.839-1.873-1.873v-17.215c0-1.034,0.839-1.873,1.873-1.873
			c1.034,0,1.873,0.839,1.873,1.873v17.215C351.189,863.406,350.351,864.245,349.316,864.245z"/>
		<path d="M362.359,864.245c-1.034,0-1.873-0.839-1.873-1.873v-17.215c0-1.034,0.839-1.873,1.873-1.873
			c1.034,0,1.873,0.839,1.873,1.873v17.215C364.232,863.406,363.394,864.245,362.359,864.245z"/>
		<path d="M373.314,862.243c-1.034,0-1.873-0.839-1.873-1.873v-17.215c0-1.034,0.839-1.873,1.873-1.873
			c1.034,0,1.873,0.839,1.873,1.873v17.215C375.187,861.404,374.348,862.243,373.314,862.243z"/>
		<path d="M384.269,859.515c-1.034,0-1.873-0.837-1.873-1.873v-17.215c0-1.034,0.839-1.873,1.873-1.873
			c1.034,0,1.873,0.839,1.873,1.873v17.215C386.142,858.678,385.303,859.515,384.269,859.515z"/>
	</g>
	<g>
		<path d="M879.788,604.502c-16.641,0-32.802-4.735-46.734-13.696c-1.741-1.117-2.245-3.436-1.126-5.175
			c1.118-1.741,3.438-2.243,5.176-1.126c12.724,8.181,27.483,12.507,42.685,12.507c15.199,0,29.959-4.326,42.686-12.507
			c1.74-1.119,4.057-0.615,5.176,1.126c1.119,1.739,0.614,4.058-1.125,5.175C912.588,599.767,896.426,604.502,879.788,604.502z"/>
		<g>
			<path d="M802.013,493.306c-0.428,0-0.862-0.075-1.286-0.229c-1.942-0.71-2.942-2.86-2.231-4.804
				c12.038-32.936,42.439-55.208,77.449-56.74c2.056-0.081,3.814,1.512,3.905,3.577c0.09,2.067-1.512,3.816-3.579,3.907
				c-31.976,1.399-59.743,21.743-70.74,51.827C804.976,492.361,803.54,493.306,802.013,493.306z"/>
			<path d="M828.198,586.465c-0.819,0-1.644-0.268-2.333-0.819c-20.72-16.527-32.604-41.194-32.604-67.671
				c0-7.432,0.944-14.815,2.807-21.943c0.523-2.002,2.57-3.204,4.57-2.677c2.002,0.521,3.2,2.568,2.677,4.569
				c-1.7,6.511-2.563,13.256-2.563,20.051c0,24.185,10.856,46.716,29.784,61.816c1.616,1.29,1.883,3.646,0.592,5.265
				C830.39,585.982,829.3,586.465,828.198,586.465z"/>
			<path d="M931.379,586.465c-1.101,0-2.19-0.482-2.93-1.409c-1.29-1.616-1.025-3.972,0.592-5.265
				c18.927-15.101,29.782-37.632,29.782-61.816c0-6.796-0.863-13.542-2.563-20.049c-0.523-2.002,0.674-4.048,2.676-4.57
				c2.001-0.523,4.048,0.675,4.571,2.676c1.862,7.125,2.808,14.509,2.808,21.943c0,26.477-11.883,51.143-32.602,67.674
				C933.022,586.199,932.198,586.465,931.379,586.465z"/>
			<path d="M957.565,493.311c-1.528,0-2.963-0.941-3.518-2.461c-10.993-30.087-38.763-50.434-70.742-51.833
				c-2.066-0.09-3.669-1.84-3.578-3.907c0.09-2.065,1.867-3.658,3.905-3.577c35.014,1.531,65.415,23.807,77.45,56.746
				c0.71,1.943-0.289,4.093-2.232,4.804C958.426,493.237,957.992,493.311,957.565,493.311z"/>
			<path d="M935.602,599.467c-0.773,0-1.545-0.236-2.202-0.715l-53.61-38.951l-53.609,38.951c-1.314,0.954-3.09,0.954-4.404,0
				c-1.312-0.953-1.861-2.643-1.36-4.187l20.478-63.025l-53.613-38.951c-1.312-0.954-1.861-2.645-1.36-4.188
				c0.502-1.542,1.939-2.588,3.563-2.588h66.269l20.476-63.022c0.503-1.542,1.939-2.588,3.563-2.588s3.061,1.046,3.563,2.588
				l20.477,63.022h66.27c1.622,0,3.06,1.046,3.563,2.588c0.501,1.543-0.049,3.234-1.361,4.188l-53.612,38.952l20.479,63.024
				c0.501,1.544-0.049,3.233-1.361,4.187C937.146,599.23,936.374,599.467,935.602,599.467z M847.265,536.17l-16.163,49.746
				l42.315-30.744L847.265,536.17z M886.161,555.172l42.316,30.744l-16.164-49.746L886.161,555.172z M849.698,528.68l30.091,21.862
				l30.091-21.862l-11.495-35.377h-37.193L849.698,528.68z M906.262,493.303l9.989,30.746l42.319-30.746H906.262z M801.009,493.303
				l42.317,30.746l9.989-30.746H801.009z M863.626,485.812h32.325l-16.163-49.744L863.626,485.812z"/>
		</g>
	</g>
	<g>
		<path d="M685.974,688.451c-0.167,0-0.334-0.003-0.502-0.007c-5.094-0.133-9.832-2.24-13.34-5.937
			c-3.508-3.695-5.367-8.535-5.235-13.629c0.275-10.589,8.912-18.847,19.564-18.578c5.094,0.131,9.832,2.24,13.341,5.935
			c3.508,3.697,5.367,8.537,5.235,13.631C704.766,680.288,696.393,688.451,685.974,688.451z M685.958,657.784
			c-6.327,0-11.41,4.96-11.574,11.287c-0.081,3.095,1.049,6.035,3.18,8.279c2.131,2.245,5.009,3.525,8.103,3.605l0.307,0.004
			c6.327,0,11.411-4.959,11.575-11.287c0.081-3.094-1.05-6.034-3.18-8.279c-2.131-2.244-5.01-3.524-8.104-3.604L685.958,657.784z"/>
		<path d="M686.422,616.387l-0.336-0.004c-7.11-0.184-12.746-6.119-12.562-13.228c0.182-7.046,5.844-12.566,12.891-12.566
			l0.336,0.003c7.112,0.187,12.746,6.122,12.563,13.229C699.13,610.869,693.468,616.387,686.422,616.387z M686.415,598.079
			c-2.904,0-5.328,2.363-5.402,5.27c-0.077,2.981,2.286,5.47,5.267,5.546l0.143,0.002c2.953,0,5.327-2.314,5.403-5.269
			c0.077-2.981-2.286-5.468-5.268-5.546L686.415,598.079z"/>
		<path d="M685.966,869.513c-2,0-3.756-1.329-4.301-3.253l-9.608-33.938c-0.112-0.396-0.168-0.806-0.168-1.217v-148.76
			c0-2.469,2-4.469,4.47-4.469c2.469,0,4.469,2,4.469,4.469v148.138l5.139,18.149l5.137-18.149V682.346c0-2.469,2-4.469,4.469-4.469
			c2.469,0,4.47,2,4.47,4.469v148.76c0,0.411-0.056,0.82-0.168,1.217l-9.606,33.938
			C689.723,868.184,687.966,869.513,685.966,869.513z"/>
		<path d="M692.25,658.975c-2,0-3.659-1.578-3.74-3.595l-1.761-43.797c-0.083-2.067,1.525-3.812,3.593-3.894
			c2.087-0.075,3.809,1.526,3.893,3.592l1.761,43.799c0.083,2.066-1.525,3.809-3.593,3.892
			C692.352,658.974,692.3,658.975,692.25,658.975z"/>
		<path d="M680.478,658.975c-0.05,0-0.101-0.001-0.152-0.003c-2.068-0.083-3.676-1.825-3.593-3.892l1.759-43.799
			c0.084-2.065,1.791-3.667,3.893-3.592c2.068,0.082,3.676,1.826,3.593,3.894l-1.76,43.797
			C684.136,657.396,682.477,658.975,680.478,658.975z"/>
		<path d="M671.733,678.822h-62.427c-2.069,0-3.746-1.678-3.746-3.745v-4.516c0-1.858,1.364-3.437,3.204-3.705l63.652-9.304
			c2.034-0.301,3.948,1.117,4.248,3.165c0.299,2.046-1.118,3.947-3.165,4.247l-43.563,6.367h41.797c2.069,0,3.745,1.678,3.745,3.745
			S673.802,678.822,671.733,678.822z"/>
		<path d="M611.591,759.471c-15.879,0-28.798-9.695-28.798-21.611c0-2.068,1.677-3.746,3.746-3.746h50.104
			c2.069,0,3.745,1.678,3.745,3.746C640.387,749.775,627.47,759.471,611.591,759.471z M591.078,741.604
			c2.548,5.906,10.912,10.376,20.513,10.376c9.602,0,17.964-4.47,20.512-10.376H591.078z"/>
		
			<path fill="none" stroke="#000000" stroke-width="7.4908" stroke-linecap="round" stroke-linejoin="round" stroke-miterlimit="10" d="
			M611.59,680.068"/>
		<path d="M636.642,739.731c-0.744,0-1.447-0.446-1.74-1.178l-21.44-53.73v53.036c0,1.033-0.839,1.872-1.873,1.872
			c-1.034,0-1.873-0.839-1.873-1.872v-62.782c0-0.897,0.638-1.67,1.52-1.839c0.882-0.168,1.759,0.31,2.093,1.144l25.052,62.782
			c0.383,0.961-0.085,2.051-1.046,2.434C637.109,739.689,636.874,739.731,636.642,739.731z"/>
		<path d="M586.539,739.731c-0.231,0-0.467-0.042-0.694-0.134c-0.96-0.383-1.429-1.473-1.046-2.433l25.051-62.781
			c0.384-0.962,1.479-1.428,2.433-1.045c0.961,0.383,1.429,1.473,1.046,2.432l-25.051,62.782
			C587.986,739.285,587.282,739.731,586.539,739.731z"/>
		<path d="M762.597,678.822h-62.425c-2.069,0-3.746-1.678-3.746-3.745s1.677-3.745,3.746-3.745h41.795l-43.563-6.367
			c-2.047-0.3-3.464-2.201-3.165-4.247c0.3-2.048,2.21-3.466,4.248-3.165l63.651,9.304c1.84,0.269,3.204,1.847,3.204,3.705v4.516
			C766.342,677.145,764.666,678.822,762.597,678.822z"/>
		<path d="M760.312,759.471c-15.879,0-28.796-9.695-28.796-21.611c0-2.068,1.676-3.746,3.745-3.746h50.104
			c2.069,0,3.745,1.678,3.745,3.746C789.109,749.775,776.19,759.471,760.312,759.471z M739.8,741.604
			c2.548,5.906,10.911,10.376,20.512,10.376c9.602,0,17.966-4.47,20.514-10.376H739.8z"/>
		
			<path fill="none" stroke="#000000" stroke-width="7.4908" stroke-linecap="round" stroke-linejoin="round" stroke-miterlimit="10" d="
			M760.312,680.068"/>
		<path d="M735.261,739.731c-0.231,0-0.467-0.042-0.693-0.134c-0.961-0.383-1.43-1.473-1.047-2.433l25.052-62.781
			c0.334-0.836,1.215-1.313,2.093-1.146c0.882,0.169,1.52,0.941,1.52,1.839v62.782c0,1.033-0.839,1.872-1.873,1.872
			c-1.033,0-1.872-0.839-1.872-1.872v-53.036l-21.438,53.729C736.708,739.285,736.005,739.731,735.261,739.731z"/>
		<path d="M785.364,739.731c-0.744,0-1.447-0.446-1.74-1.178l-25.052-62.781c-0.383-0.961,0.085-2.051,1.046-2.434
			c0.956-0.383,2.051,0.083,2.434,1.043l25.052,62.782c0.383,0.961-0.085,2.051-1.046,2.434
			C785.831,739.689,785.596,739.731,785.364,739.731z"/>
		<path d="M685.966,866.916c-1.033,0-1.87-0.836-1.873-1.87l-0.397-180.342c-0.002-1.034,0.834-1.875,1.869-1.878
			c0.001,0,0.002,0,0.003,0c1.033,0,1.87,0.837,1.873,1.869l0.397,180.343c0.002,1.034-0.834,1.876-1.869,1.878
			C685.969,866.916,685.968,866.916,685.966,866.916z"/>
	</g>
	<g>
		<g>
			<path d="M1049.005,824.181c-0.685,0-1.314-0.373-1.644-0.974l-14.574-26.651l-26.651-14.574
				c-0.601-0.329-0.974-0.959-0.974-1.644c0-0.683,0.373-1.314,0.974-1.642l26.651-14.574l14.574-26.651
				c0.329-0.601,0.959-0.974,1.644-0.974c0.684,0,1.314,0.373,1.644,0.974l14.574,26.651l26.649,14.574
				c0.601,0.327,0.975,0.959,0.975,1.642c0,0.685-0.374,1.314-0.975,1.644l-26.649,14.574l-14.574,26.651
				C1050.319,823.808,1049.688,824.181,1049.005,824.181z M1010.938,780.338l24.128,13.196c0.314,0.171,0.573,0.43,0.745,0.744
				l13.194,24.128l13.194-24.128c0.172-0.314,0.43-0.573,0.745-0.744l24.127-13.196l-24.127-13.194
				c-0.315-0.171-0.573-0.43-0.745-0.744l-13.194-24.128l-13.194,24.128c-0.172,0.314-0.431,0.573-0.745,0.744L1010.938,780.338z"/>
			<path d="M1019.328,811.889c-0.49,0-0.968-0.193-1.324-0.549c-0.484-0.485-0.666-1.195-0.473-1.851l8.536-29.151l-8.536-29.149
				c-0.193-0.655-0.012-1.365,0.473-1.851c0.484-0.482,1.188-0.666,1.851-0.473l29.15,8.539l29.149-8.539
				c0.66-0.193,1.367-0.01,1.852,0.473c0.483,0.485,0.665,1.195,0.473,1.851l-8.538,29.149l8.538,29.151
				c0.192,0.655,0.011,1.365-0.473,1.851c-0.484,0.482-1.191,0.665-1.852,0.473l-29.149-8.537l-29.15,8.537
				C1019.681,811.864,1019.504,811.889,1019.328,811.889z M1022.087,753.422l7.729,26.392c0.102,0.341,0.102,0.707,0,1.051
				l-7.729,26.391l26.392-7.727c0.344-0.103,0.709-0.103,1.053,0l26.39,7.727l-7.729-26.391c-0.102-0.344-0.102-0.71,0-1.054
				l7.729-26.389l-26.39,7.73c-0.344,0.1-0.709,0.1-1.053,0L1022.087,753.422z"/>
		</g>
		<path d="M1113.033,853.41H981.658c-2.069,0-3.745-1.678-3.745-3.746v-18.308c0-2.067,1.676-3.745,3.745-3.745h131.375
			c2.068,0,3.745,1.678,3.745,3.745v18.308C1116.778,851.732,1115.102,853.41,1113.033,853.41z M985.403,845.919h123.884v-10.817
			H985.403V845.919z"/>
		<path d="M1102.084,835.102H992.605c-2.069,0-3.745-1.677-3.745-3.745V731.91c0-2.067,1.676-3.745,3.745-3.745h109.479
			c2.069,0,3.746,1.678,3.746,3.745v99.446C1105.83,833.425,1104.153,835.102,1102.084,835.102z M996.351,827.611h101.988v-91.955
			H996.351V827.611z"/>
		<path d="M1115.445,735.656h-136.2c-2.069,0-3.745-1.678-3.745-3.746v-14.564c0-2.067,1.676-3.745,3.745-3.745h136.2
			c2.069,0,3.746,1.678,3.746,3.745v14.564C1119.191,733.979,1117.515,735.656,1115.445,735.656z M982.99,728.165h128.71v-7.073
			H982.99V728.165z"/>
		<path d="M1102.084,721.092H992.605c-1.575,0-2.983-0.985-3.521-2.468c-0.537-1.48-0.09-3.139,1.118-4.15l54.74-45.77
			c1.393-1.163,3.414-1.163,4.806,0l54.739,45.77c1.208,1.012,1.655,2.67,1.118,4.15
			C1105.067,720.106,1103.659,721.092,1102.084,721.092z M1002.924,713.601h88.842l-44.42-37.142L1002.924,713.601z"/>
		<path d="M1081.396,871.717h-68.099c-0.915,0-1.798-0.336-2.482-0.94l-20.691-18.308c-1.166-1.031-1.571-2.678-1.021-4.134
			c0.553-1.455,1.946-2.416,3.503-2.416h109.479c1.557,0,2.951,0.961,3.503,2.416c0.551,1.456,0.146,3.103-1.021,4.134
			l-20.688,18.308C1083.192,871.381,1082.31,871.717,1081.396,871.717z M1014.716,864.227h65.261l12.224-10.816h-89.71
			L1014.716,864.227z"/>
		<path d="M1079.801,835.102h-64.911c-2.068,0-3.745-1.677-3.745-3.745V731.91c0-2.067,1.677-3.745,3.745-3.745h64.911
			c2.069,0,3.745,1.678,3.745,3.745v99.446C1083.546,833.425,1081.87,835.102,1079.801,835.102z M1018.636,827.611h57.42v-91.955
			h-57.42V827.611z"/>
		<path d="M1079.801,721.092h-64.911c-1.4,0-2.685-0.781-3.327-2.024c-0.644-1.246-0.537-2.745,0.272-3.887l32.455-45.77
			c0.702-0.992,1.841-1.58,3.056-1.58c1.214,0,2.353,0.588,3.055,1.58l32.456,45.77c0.81,1.142,0.915,2.641,0.271,3.887
			C1082.485,720.311,1081.201,721.092,1079.801,721.092z M1022.137,713.601h50.417l-25.208-35.547L1022.137,713.601z"/>
		<path d="M1067.533,871.717h-40.377c-1.249,0-2.416-0.624-3.111-1.66l-12.267-18.308c-0.769-1.151-0.844-2.629-0.192-3.851
			c0.651-1.219,1.922-1.979,3.304-1.979h64.911c1.383,0,2.653,0.761,3.304,1.979c0.651,1.222,0.577,2.702-0.192,3.851
			l-12.268,18.308C1069.949,871.093,1068.783,871.717,1067.533,871.717z M1029.156,864.227h36.379l7.248-10.816h-50.875
			L1029.156,864.227z"/>
		<path d="M1079.801,735.656c-2.069,0-3.745-1.678-3.745-3.746v-14.564c0-2.067,1.676-3.745,3.745-3.745s3.745,1.678,3.745,3.745
			v14.564C1083.546,733.979,1081.87,735.656,1079.801,735.656z"/>
		<path d="M1014.89,735.656c-2.068,0-3.745-1.678-3.745-3.746v-14.564c0-2.067,1.677-3.745,3.745-3.745
			c2.069,0,3.746,1.678,3.746,3.745v14.564C1018.636,733.979,1016.959,735.656,1014.89,735.656z"/>
		<path d="M1079.801,853.41c-2.069,0-3.745-1.678-3.745-3.746v-18.725c0-2.067,1.676-3.745,3.745-3.745s3.745,1.678,3.745,3.745
			v18.725C1083.546,851.732,1081.87,853.41,1079.801,853.41z"/>
		<path d="M1014.89,853.41c-2.068,0-3.745-1.678-3.745-3.746v-18.725c0-2.067,1.677-3.745,3.745-3.745
			c2.069,0,3.746,1.678,3.746,3.745v18.725C1018.636,851.732,1016.959,853.41,1014.89,853.41z"/>
	</g>
	<g>
		<path d="M1062.952,361.631c-55.889,0-101.357-45.469-101.357-101.359c0-55.889,45.469-101.358,101.357-101.358
			c55.89,0,101.359,45.469,101.359,101.358C1164.312,316.162,1118.842,361.631,1062.952,361.631z M1062.952,166.405
			c-51.758,0-93.866,42.109-93.866,93.867c0,51.759,42.108,93.868,93.866,93.868c51.76,0,93.868-42.109,93.868-93.868
			C1156.82,208.514,1114.712,166.405,1062.952,166.405z"/>
		<path d="M1062.952,332.292c-39.711,0-72.019-32.308-72.019-72.02c0-39.711,32.308-72.019,72.019-72.019
			c39.712,0,72.021,32.308,72.021,72.019C1134.973,299.984,1102.664,332.292,1062.952,332.292z M1062.952,195.744
			c-35.58,0-64.527,28.947-64.527,64.528c0,35.581,28.947,64.529,64.527,64.529c35.582,0,64.529-28.948,64.529-64.529
			C1127.481,224.691,1098.534,195.744,1062.952,195.744z"/>
		<path d="M1062.952,316.119c-1.033,0-1.872-0.837-1.872-1.873v-6.188c0-1.034,0.839-1.873,1.872-1.873
			c1.034,0,1.873,0.839,1.873,1.873v6.188C1064.825,315.281,1063.986,316.119,1062.952,316.119z"/>
		
			<path fill="none" stroke="#000000" stroke-width="3.7454" stroke-linecap="round" stroke-linejoin="round" stroke-miterlimit="10" d="
			M1062.952,308.059"/>
		<path d="M1062.952,305.978c-1.033,0-1.872-0.838-1.872-1.873v-77.096c0-1.034,0.839-1.873,1.872-1.873
			c1.034,0,1.873,0.839,1.873,1.873v77.096C1064.825,305.14,1063.986,305.978,1062.952,305.978z"/>
		<path d="M1062.952,220.455c-1.033,0-1.872-0.838-1.872-1.873v-12.283c0-1.034,0.839-1.873,1.872-1.873
			c1.034,0,1.873,0.839,1.873,1.873v12.283C1064.825,219.617,1063.986,220.455,1062.952,220.455z"/>
		<path d="M1014.397,262.145h-5.419c-1.034,0-1.873-0.838-1.873-1.873c0-1.034,0.839-1.873,1.873-1.873h5.419
			c1.034,0,1.873,0.839,1.873,1.873C1016.271,261.307,1015.432,262.145,1014.397,262.145z"/>
		<path d="M1096.769,262.145h-69.485c-1.034,0-1.873-0.838-1.873-1.873c0-1.034,0.839-1.873,1.873-1.873h69.485
			c1.034,0,1.872,0.839,1.872,1.873C1098.641,261.307,1097.803,262.145,1096.769,262.145z"/>
		
			<path fill="none" stroke="#000000" stroke-width="3.7454" stroke-linecap="round" stroke-linejoin="round" stroke-miterlimit="10" d="
			M1096.769,260.272"/>
		<path d="M1116.926,262.145h-7.438c-1.034,0-1.873-0.838-1.873-1.873c0-1.034,0.839-1.873,1.873-1.873h7.438
			c1.033,0,1.873,0.839,1.873,1.873C1118.799,261.307,1117.959,262.145,1116.926,262.145z"/>
		<path d="M1024.786,300.311c-0.479,0-0.958-0.183-1.324-0.549c-0.731-0.73-0.731-1.917,0-2.648l76.331-76.33
			c0.731-0.731,1.917-0.731,2.648,0s0.731,1.917,0,2.648l-76.331,76.33C1025.744,300.128,1025.266,300.311,1024.786,300.311z"/>
		<path d="M1101.117,300.31c-0.479,0-0.958-0.183-1.324-0.549l-76.331-76.33c-0.731-0.73-0.731-1.917,0-2.648s1.917-0.731,2.648,0
			l76.331,76.33c0.731,0.731,0.731,1.917,0,2.648C1102.076,300.126,1101.597,300.31,1101.117,300.31z"/>
		<path d="M1020.841,267.334c-4.585,0-8.316-3.167-8.316-7.063c0-3.895,3.731-7.063,8.316-7.063c4.586,0,8.315,3.168,8.315,7.063
			C1029.156,264.167,1025.427,267.334,1020.841,267.334z M1020.841,256.954c-2.478,0-4.57,1.52-4.57,3.318s2.093,3.317,4.57,3.317
			s4.569-1.519,4.569-3.317S1023.318,256.954,1020.841,256.954z"/>
		<path d="M1096.769,268.48c-0.347,0-0.691-0.095-0.995-0.285c-0.546-0.342-0.878-0.942-0.878-1.587v-12.67
			c0-0.645,0.332-1.244,0.878-1.586c0.549-0.341,1.234-0.379,1.812-0.099l13.073,6.335c0.646,0.313,1.056,0.968,1.056,1.685
			c0,0.718-0.41,1.373-1.056,1.685l-13.073,6.335C1097.327,268.418,1097.048,268.48,1096.769,268.48z M1098.641,256.926v6.693
			l6.906-3.347L1098.641,256.926z"/>
		<path d="M1092.633,268.131c-1.034,0-1.873-0.838-1.873-1.873V254.32c0-1.034,0.839-1.873,1.873-1.873s1.873,0.839,1.873,1.873
			v11.938C1094.506,267.293,1093.667,268.131,1092.633,268.131z"/>
		<path d="M1032.277,268.677c-1.034,0-1.873-0.837-1.873-1.873v-11.938c0-1.034,0.839-1.873,1.873-1.873
			c1.033,0,1.873,0.839,1.873,1.873v11.938C1034.15,267.839,1033.311,268.677,1032.277,268.677z"/>
		<g>
			<path d="M1063.356,305.978c-2.593,0-4.7-2.108-4.7-4.7c0-0.525-0.428-0.955-0.955-0.955c-0.526,0-0.954,0.429-0.954,0.955
				c0,2.592-2.109,4.7-4.702,4.7c-2.592,0-4.699-2.108-4.699-4.7c0-1.034,0.839-1.873,1.872-1.873c1.034,0,1.873,0.839,1.873,1.873
				c0,0.527,0.428,0.955,0.954,0.955c0.527,0,0.956-0.428,0.956-0.955c0-2.591,2.108-4.7,4.7-4.7s4.7,2.109,4.7,4.7
				c0,0.527,0.428,0.955,0.955,0.955c0.526,0,0.954-0.428,0.954-0.955c0-2.591,2.109-4.7,4.701-4.7s4.7,2.109,4.7,4.7
				c0,1.035-0.839,1.873-1.873,1.873c-1.033,0-1.872-0.838-1.872-1.873c0-0.525-0.428-0.955-0.955-0.955
				c-0.526,0-0.956,0.429-0.956,0.955C1068.056,303.87,1065.948,305.978,1063.356,305.978z"/>
			<path d="M1063.356,309.967c-2.593,0-4.7-2.108-4.7-4.7c0-0.525-0.428-0.955-0.955-0.955c-0.526,0-0.954,0.429-0.954,0.955
				c0,2.592-2.109,4.7-4.702,4.7c-2.592,0-4.699-2.108-4.699-4.7c0-1.034,0.839-1.873,1.872-1.873c1.034,0,1.873,0.839,1.873,1.873
				c0,0.527,0.428,0.955,0.954,0.955c0.527,0,0.956-0.428,0.956-0.955c0-2.591,2.108-4.7,4.7-4.7s4.7,2.109,4.7,4.7
				c0,0.527,0.428,0.955,0.955,0.955c0.526,0,0.954-0.428,0.954-0.955c0-2.591,2.109-4.7,4.701-4.7s4.7,2.109,4.7,4.7
				c0,1.035-0.839,1.873-1.873,1.873c-1.033,0-1.872-0.838-1.872-1.873c0-0.525-0.428-0.955-0.955-0.955
				c-0.526,0-0.956,0.429-0.956,0.955C1068.056,307.859,1065.948,309.967,1063.356,309.967z"/>
		</g>
		<path d="M1062.952,228.882c-3.356,0-6.086-2.729-6.086-6.086c0-3.355,2.729-6.086,6.086-6.086s6.087,2.731,6.087,6.086
			C1069.039,226.152,1066.309,228.882,1062.952,228.882z M1062.952,220.455c-1.291,0-2.341,1.051-2.341,2.341
			c0,1.291,1.05,2.341,2.341,2.341c1.292,0,2.341-1.05,2.341-2.341C1065.293,221.506,1064.244,220.455,1062.952,220.455z"/>
		<path d="M1062.952,218.114c-0.021,0-0.041,0-0.063-0.001c-1.811-0.06-6.022-0.523-6.022-3.499v-5.135
			c0-1.034,0.839-1.873,1.873-1.873c1.033,0,1.872,0.839,1.872,1.873v4.513c0.532,0.177,1.505,0.339,2.343,0.375
			c0.836-0.034,1.774-0.169,2.339-0.323v-4.566c0-1.034,0.839-1.873,1.873-1.873s1.873,0.839,1.873,1.873v5.347
			c0,2.551-3.276,3.196-6.023,3.287C1062.994,218.114,1062.973,218.114,1062.952,218.114z"/>
	</g>
</g>
</svg>
